<?xml version="1.0" encoding="UTF-8" standalone="no"?>
<!-- Created with Inkscape (http://www.inkscape.org/) -->

<svg
   xmlns:dc="http://purl.org/dc/elements/1.1/"
   xmlns:cc="http://creativecommons.org/ns#"
   xmlns:rdf="http://www.w3.org/1999/02/22-rdf-syntax-ns#"
   xmlns:svg="http://www.w3.org/2000/svg"
   xmlns="http://www.w3.org/2000/svg"
   xmlns:sodipodi="http://sodipodi.sourceforge.net/DTD/sodipodi-0.dtd"
   xmlns:inkscape="http://www.inkscape.org/namespaces/inkscape"
   id="svg3355"
   version="1.1"
   inkscape:version="0.91 r13725"
   xml:space="preserve"
   width="1000"
   height="765"
   viewBox="0 0 1000 765"
   sodipodi:docname="tennis_yellow.svg"><metadata
     id="metadata3361"><rdf:RDF><cc:Work
         rdf:about=""><dc:format>image/svg+xml</dc:format><dc:type
           rdf:resource="http://purl.org/dc/dcmitype/StillImage" /><dc:title></dc:title></cc:Work></rdf:RDF></metadata><defs
     id="defs3359" /><sodipodi:namedview
     pagecolor="#ffffff"
     bordercolor="#666666"
     borderopacity="1"
     objecttolerance="10"
     gridtolerance="10"
     guidetolerance="10"
     inkscape:pageopacity="0"
     inkscape:pageshadow="2"
     inkscape:window-width="1283"
     inkscape:window-height="757"
     id="namedview3357"
     showgrid="false"
     inkscape:zoom="0.65757576"
     inkscape:cx="549.51596"
     inkscape:cy="381.37766"
     inkscape:window-x="0"
     inkscape:window-y="0"
     inkscape:window-maximized="0"
     inkscape:current-layer="g3363" /><g
     id="g3363"
     inkscape:groupmode="layer"
     inkscape:label="CTMEX_ManualIdentidad_CS6_totem_2"
     transform="matrix(1.25,0,0,-1.25,0,765)"><path
       d="m 0,0 800.51613,0 0,612 L 0,612 0,0 Z"
       style="fill:#fab531;fill-opacity:1;fill-rule:nonzero;stroke:none"
       id="path3365"
       inkscape:connector-curvature="0" /><g
       id="g3371"
       transform="translate(0,230.3526)"><path
         d="m 0,0 381.208,-220.091 4.961,8.592 L 0,11.456 0,0 Z"
         style="fill:#ffffff;fill-opacity:1;fill-rule:nonzero;stroke:none"
         id="path3373"
         inkscape:connector-curvature="0" /></g><g
       id="g3375"
       transform="translate(0,54.8153)"><path
         d="m 0,0 94.943,-54.815 19.842,0 L 0,11.456 0,0 Z"
         style="fill:#ffffff;fill-opacity:1;fill-rule:nonzero;stroke:none"
         id="path3377"
         inkscape:connector-curvature="0" /></g><g
       id="g3379"
       transform="translate(230.8862,612)"><path
         d="m 0,0 500.401,-288.907 4.96,8.592 L 19.842,0 0,0 Z"
         style="fill:#ffffff;fill-opacity:1;fill-rule:nonzero;stroke:none"
         id="path3381"
         inkscape:connector-curvature="0" /></g><g
       id="g3383"
       transform="translate(520.9003,612)"><path
         d="m 0,0 -375.346,-463.513 7.71,-6.245 L 12.766,0 0,0 Z"
         style="fill:#ffffff;fill-opacity:1;fill-rule:nonzero;stroke:none"
         id="path3385"
         inkscape:connector-curvature="0" /></g><g
       id="g3387"
       transform="translate(359.7019,0)"><path
         d="m 0,0 12.771,0 419.527,518.031 0,15.874 L 0,0 Z"
         style="fill:#ffffff;fill-opacity:1;fill-rule:nonzero;stroke:none"
         id="path3389"
         inkscape:connector-curvature="0" /></g><g
       id="g3391"
       transform="translate(193.8556,612)"><path
         d="m 0,0 -193.856,-239.42 0,-15.786 L 12.823,0 0,0 Z"
         style="fill:#ffffff;fill-opacity:1;fill-rule:nonzero;stroke:none"
         id="path3393"
         inkscape:connector-curvature="0" /></g></g></svg>