<?xml version="1.0" encoding="UTF-8" standalone="no"?>
<svg
   xmlns:dc="http://purl.org/dc/elements/1.1/"
   xmlns:cc="http://creativecommons.org/ns#"
   xmlns:rdf="http://www.w3.org/1999/02/22-rdf-syntax-ns#"
   xmlns:svg="http://www.w3.org/2000/svg"
   xmlns="http://www.w3.org/2000/svg"
   viewBox="0 0 370 765"
   height="765"
   width="370"
   xml:space="preserve"
   version="1.1"
   id="svg3355"><metadata
     id="metadata3361"><rdf:RDF><cc:Work
         rdf:about=""><dc:format>image/svg+xml</dc:format><dc:type
           rdf:resource="http://purl.org/dc/dcmitype/StillImage" /><dc:title></dc:title></cc:Work></rdf:RDF></metadata><defs
     id="defs3359"><clipPath
       id="clipPath3453"
       clipPathUnits="userSpaceOnUse"><path
         id="path3455"
         d="m 0,0 1584,0 0,612 L 0,612 0,0 Z" /></clipPath><clipPath
       id="clipPath3501"
       clipPathUnits="userSpaceOnUse"><path
         id="path3503"
         d="m 0,0 1584,0 0,612 L 0,612 0,0 Z" /></clipPath><clipPath
       id="clipPath3515"
       clipPathUnits="userSpaceOnUse"><path
         id="path3517"
         d="m 0,0 1584,0 0,612 L 0,612 0,0 Z" /></clipPath><clipPath
       id="clipPath3549"
       clipPathUnits="userSpaceOnUse"><path
         id="path3551"
         d="m 0,0 1584,0 0,612 L 0,612 0,0 Z" /></clipPath><clipPath
       id="clipPath3575"
       clipPathUnits="userSpaceOnUse"><path
         id="path3577"
         d="m 0,0 1584,0 0,612 L 0,612 0,0 Z" /></clipPath><clipPath
       id="clipPath3595"
       clipPathUnits="userSpaceOnUse"><path
         id="path3597"
         d="m 0,0 1584,0 0,612 L 0,612 0,0 Z" /></clipPath><clipPath
       id="clipPath3779"
       clipPathUnits="userSpaceOnUse"><path
         id="path3781"
         d="m 0,0 1584,0 0,612 L 0,612 0,0 Z" /></clipPath><clipPath
       id="clipPath3793"
       clipPathUnits="userSpaceOnUse"><path
         id="path3795"
         d="m 0,0 1584,0 0,612 L 0,612 0,0 Z" /></clipPath><clipPath
       id="clipPath3827"
       clipPathUnits="userSpaceOnUse"><path
         id="path3829"
         d="m 0,0 1584,0 0,612 L 0,612 0,0 Z" /></clipPath><clipPath
       id="clipPath3853"
       clipPathUnits="userSpaceOnUse"><path
         id="path3855"
         d="m 0,0 1584,0 0,612 L 0,612 0,0 Z" /></clipPath><clipPath
       id="clipPath3873"
       clipPathUnits="userSpaceOnUse"><path
         id="path3875"
         d="m 0,0 1584,0 0,612 L 0,612 0,0 Z" /></clipPath><clipPath
       id="clipPath3961"
       clipPathUnits="userSpaceOnUse"><path
         id="path3963"
         d="m 0,0 1584,0 0,612 L 0,612 0,0 Z" /></clipPath><clipPath
       id="clipPath3975"
       clipPathUnits="userSpaceOnUse"><path
         id="path3977"
         d="m 0,0 1584,0 0,612 L 0,612 0,0 Z" /></clipPath><clipPath
       id="clipPath4009"
       clipPathUnits="userSpaceOnUse"><path
         id="path4011"
         d="m 0,0 1584,0 0,612 L 0,612 0,0 Z" /></clipPath><clipPath
       id="clipPath4035"
       clipPathUnits="userSpaceOnUse"><path
         id="path4037"
         d="m 0,0 1584,0 0,612 L 0,612 0,0 Z" /></clipPath><clipPath
       id="clipPath4055"
       clipPathUnits="userSpaceOnUse"><path
         id="path4057"
         d="m 0,0 1584,0 0,612 L 0,612 0,0 Z" /></clipPath><clipPath
       id="clipPath4143"
       clipPathUnits="userSpaceOnUse"><path
         id="path4145"
         d="m 0,0 1584,0 0,612 L 0,612 0,0 Z" /></clipPath><clipPath
       id="clipPath4157"
       clipPathUnits="userSpaceOnUse"><path
         id="path4159"
         d="m 0,0 1584,0 0,612 L 0,612 0,0 Z" /></clipPath><clipPath
       id="clipPath4191"
       clipPathUnits="userSpaceOnUse"><path
         id="path4193"
         d="m 0,0 1584,0 0,612 L 0,612 0,0 Z" /></clipPath><clipPath
       id="clipPath4217"
       clipPathUnits="userSpaceOnUse"><path
         id="path4219"
         d="m 0,0 1584,0 0,612 L 0,612 0,0 Z" /></clipPath><clipPath
       id="clipPath4237"
       clipPathUnits="userSpaceOnUse"><path
         id="path4239"
         d="m 0,0 1584,0 0,612 L 0,612 0,0 Z" /></clipPath><clipPath
       id="clipPath4325"
       clipPathUnits="userSpaceOnUse"><path
         id="path4327"
         d="m 0,0 1584,0 0,612 L 0,612 0,0 Z" /></clipPath><clipPath
       id="clipPath4339"
       clipPathUnits="userSpaceOnUse"><path
         id="path4341"
         d="m 0,0 1584,0 0,612 L 0,612 0,0 Z" /></clipPath><clipPath
       id="clipPath4373"
       clipPathUnits="userSpaceOnUse"><path
         id="path4375"
         d="m 0,0 1584,0 0,612 L 0,612 0,0 Z" /></clipPath><clipPath
       id="clipPath4399"
       clipPathUnits="userSpaceOnUse"><path
         id="path4401"
         d="m 0,0 1584,0 0,612 L 0,612 0,0 Z" /></clipPath><clipPath
       id="clipPath4419"
       clipPathUnits="userSpaceOnUse"><path
         id="path4421"
         d="m 0,0 1584,0 0,612 L 0,612 0,0 Z" /></clipPath><clipPath
       id="clipPath4507"
       clipPathUnits="userSpaceOnUse"><path
         id="path4509"
         d="m 0,0 1584,0 0,612 L 0,612 0,0 Z" /></clipPath><clipPath
       id="clipPath4521"
       clipPathUnits="userSpaceOnUse"><path
         id="path4523"
         d="m 0,0 1584,0 0,612 L 0,612 0,0 Z" /></clipPath><clipPath
       id="clipPath4555"
       clipPathUnits="userSpaceOnUse"><path
         id="path4557"
         d="m 0,0 1584,0 0,612 L 0,612 0,0 Z" /></clipPath><clipPath
       id="clipPath4581"
       clipPathUnits="userSpaceOnUse"><path
         id="path4583"
         d="m 0,0 1584,0 0,612 L 0,612 0,0 Z" /></clipPath><clipPath
       id="clipPath4601"
       clipPathUnits="userSpaceOnUse"><path
         id="path4603"
         d="m 0,0 1584,0 0,612 L 0,612 0,0 Z" /></clipPath><clipPath
       id="clipPath4689"
       clipPathUnits="userSpaceOnUse"><path
         id="path4691"
         d="m 0,0 1584,0 0,612 L 0,612 0,0 Z" /></clipPath><clipPath
       id="clipPath4703"
       clipPathUnits="userSpaceOnUse"><path
         id="path4705"
         d="m 0,0 1584,0 0,612 L 0,612 0,0 Z" /></clipPath><clipPath
       id="clipPath4737"
       clipPathUnits="userSpaceOnUse"><path
         id="path4739"
         d="m 0,0 1584,0 0,612 L 0,612 0,0 Z" /></clipPath><clipPath
       id="clipPath4763"
       clipPathUnits="userSpaceOnUse"><path
         id="path4765"
         d="m 0,0 1584,0 0,612 L 0,612 0,0 Z" /></clipPath><clipPath
       id="clipPath4783"
       clipPathUnits="userSpaceOnUse"><path
         id="path4785"
         d="m 0,0 1584,0 0,612 L 0,612 0,0 Z" /></clipPath><clipPath
       id="clipPath4835"
       clipPathUnits="userSpaceOnUse"><path
         id="path4837"
         d="m 0,0 1584,0 0,612 L 0,612 0,0 Z" /></clipPath><clipPath
       id="clipPath4849"
       clipPathUnits="userSpaceOnUse"><path
         id="path4851"
         d="m 0,0 1584,0 0,612 L 0,612 0,0 Z" /></clipPath><clipPath
       id="clipPath4883"
       clipPathUnits="userSpaceOnUse"><path
         id="path4885"
         d="m 0,0 1584,0 0,612 L 0,612 0,0 Z" /></clipPath><clipPath
       id="clipPath4909"
       clipPathUnits="userSpaceOnUse"><path
         id="path4911"
         d="m 0,0 1584,0 0,612 L 0,612 0,0 Z" /></clipPath><clipPath
       id="clipPath4929"
       clipPathUnits="userSpaceOnUse"><path
         id="path4931"
         d="m 0,0 1584,0 0,612 L 0,612 0,0 Z" /></clipPath><clipPath
       id="clipPath5197"
       clipPathUnits="userSpaceOnUse"><path
         id="path5199"
         d="m 0,0 1584,0 0,612 L 0,612 0,0 Z" /></clipPath><clipPath
       id="clipPath5211"
       clipPathUnits="userSpaceOnUse"><path
         id="path5213"
         d="m 0,0 1584,0 0,612 L 0,612 0,0 Z" /></clipPath><clipPath
       id="clipPath5245"
       clipPathUnits="userSpaceOnUse"><path
         id="path5247"
         d="m 0,0 1584,0 0,612 L 0,612 0,0 Z" /></clipPath><clipPath
       id="clipPath5271"
       clipPathUnits="userSpaceOnUse"><path
         id="path5273"
         d="m 0,0 1584,0 0,612 L 0,612 0,0 Z" /></clipPath><clipPath
       id="clipPath5291"
       clipPathUnits="userSpaceOnUse"><path
         id="path5293"
         d="m 0,0 1584,0 0,612 L 0,612 0,0 Z" /></clipPath><clipPath
       id="clipPath5379"
       clipPathUnits="userSpaceOnUse"><path
         id="path5381"
         d="m 0,0 1584,0 0,612 L 0,612 0,0 Z" /></clipPath><clipPath
       id="clipPath5393"
       clipPathUnits="userSpaceOnUse"><path
         id="path5395"
         d="m 0,0 1584,0 0,612 L 0,612 0,0 Z" /></clipPath><clipPath
       id="clipPath5427"
       clipPathUnits="userSpaceOnUse"><path
         id="path5429"
         d="m 0,0 1584,0 0,612 L 0,612 0,0 Z" /></clipPath><clipPath
       id="clipPath5453"
       clipPathUnits="userSpaceOnUse"><path
         id="path5455"
         d="m 0,0 1584,0 0,612 L 0,612 0,0 Z" /></clipPath><clipPath
       id="clipPath5473"
       clipPathUnits="userSpaceOnUse"><path
         id="path5475"
         d="m 0,0 1584,0 0,612 L 0,612 0,0 Z" /></clipPath></defs><g
     transform="matrix(1.25,0,0,-1.25,0,765)"
     id="g3363"><g
       transform="translate(0,612)"
       id="g3367"><path
         id="path3369"
       style="fill:#1946ba;fill-opacity:1;fill-rule:nonzero;stroke:none"
         d="m 0,0 0,-612 125.174,0 L 287.371,0 0,0 Z" /></g><g
       transform="translate(205.7084,612)"
       id="g3371"><path
         id="path3373"
         style="fill:#ffffff;fill-opacity:1;fill-rule:nonzero;stroke:none"
         d="m 0,0 -163.233,-612 13.89,0 L 12.855,0 0,0 Z" /></g><g
       transform="translate(0,304.8645)"
       id="g3375"><path
         id="path3377"
         style="fill:#ffffff;fill-opacity:1;fill-rule:nonzero;stroke:none"
         d="m 0,0 126.002,-37.083 0.364,13.911 L 0,13.501 0,0 Z" /></g></g></svg>
