<?xml version="1.0" encoding="UTF-8" standalone="no"?>
<!-- Created with Inkscape (http://www.inkscape.org/) -->

<svg
   xmlns:dc="http://purl.org/dc/elements/1.1/"
   xmlns:cc="http://creativecommons.org/ns#"
   xmlns:rdf="http://www.w3.org/1999/02/22-rdf-syntax-ns#"
   xmlns:svg="http://www.w3.org/2000/svg"
   xmlns="http://www.w3.org/2000/svg"
   xmlns:sodipodi="http://sodipodi.sourceforge.net/DTD/sodipodi-0.dtd"
   xmlns:inkscape="http://www.inkscape.org/namespaces/inkscape"
   id="svg3380"
   version="1.1"
   inkscape:version="0.91 r13725"
   xml:space="preserve"
   width="600"
   height="230"
   viewBox="0 0 600 230"
   sodipodi:docname="ctmex_imagotipo.svg"><metadata
     id="metadata3386"><rdf:RDF><cc:Work
         rdf:about=""><dc:format>image/svg+xml</dc:format><dc:type
           rdf:resource="http://purl.org/dc/dcmitype/StillImage" /><dc:title></dc:title></cc:Work></rdf:RDF></metadata><defs
     id="defs3384" /><sodipodi:namedview
     pagecolor="#ffffff"
     bordercolor="#666666"
     borderopacity="1"
     objecttolerance="10"
     gridtolerance="10"
     guidetolerance="10"
     inkscape:pageopacity="0"
     inkscape:pageshadow="2"
     inkscape:window-width="1300"
     inkscape:window-height="810"
     id="namedview3382"
     showgrid="false"
     inkscape:zoom="0.48913858"
     inkscape:cx="631.25"
     inkscape:cy="333.75"
     inkscape:window-x="0"
     inkscape:window-y="0"
     inkscape:window-maximized="0"
     inkscape:current-layer="g3388" /><g
     id="g3388"
     inkscape:groupmode="layer"
     inkscape:label="ctmex_logo_final"
     transform="matrix(1.25,0,0,-1.25,0,230)"><path
       d="m 211.13663,68.36863 c -0.87755,16.0059 -8.85567,29.95005 -20.67845,39.01235 -0.49938,0.38215 -1.00141,0.75635 -1.51072,1.11797 -0.89478,0.63846 -1.80875,1.24712 -2.74326,1.82928 -0.53978,0.33447 -1.08618,0.65701 -1.63457,0.97094 -0.91994,0.52719 -1.85511,1.03187 -2.8075,1.50277 -0.63118,0.31128 -1.267,0.60468 -1.90678,0.88881 -0.0788,0.0364 -0.1616,0.0649 -0.24042,0.10133 -0.0199,-0.506 -0.0967,-0.99875 -0.0695,-1.51336 l 4.98516,-91.00586 c 0.0272,-0.51462 0.15895,-0.99478 0.23379,-1.4935 16.66821,9.6544 27.49556,28.07308 26.37228,48.58927"
       style="fill:#f9b039;fill-opacity:1;fill-rule:nonzero;stroke:none"
       id="path3390"
       inkscape:connector-curvature="0" /><path
       d="m 275.64636,71.90069 c 1.12327,-20.5142 13.89712,-37.64072 31.52037,-45.41682 0.0205,0.50467 0.098,0.99477 0.0688,1.50938 l -4.98251,91.00587 c -0.0292,0.5146 -0.15962,0.99411 -0.23512,1.49349 -16.66821,-9.65639 -27.49423,-28.0744 -26.37162,-48.59192"
       style="fill:#f9b039;fill-opacity:1;fill-rule:nonzero;stroke:none"
       id="path3392"
       inkscape:connector-curvature="0" /><path
       d="m 259.69146,71.02712 c -1.4127,25.81661 11.67443,49.12706 32.13962,62.0188 -1.95777,0.71396 -4.08509,1.05704 -6.29652,0.93584 l -91.00653,-4.9845 c -2.21143,-0.1212 -4.28842,-0.69476 -6.15744,-1.61735 0.42123,-0.20399 0.83517,-0.41857 1.25242,-0.63184 0.51196,-0.26094 1.02193,-0.52123 1.52926,-0.79675 1.4723,-0.80072 2.9095,-1.66172 4.31557,-2.56378 0.62852,-0.40268 1.24712,-0.81595 1.86704,-1.24115 1.34646,-0.92855 2.65981,-1.89817 3.93673,-2.91745 0.26625,-0.21194 0.5517,-0.38745 0.81729,-0.60402 l -0.0265,-0.0318 c 14.3614,-11.81616 23.93301,-29.36257 25.02847,-49.35158 1.41269,-25.81527 -11.67378,-49.12308 -32.13896,-62.01416 1.95777,-0.7133 4.08508,-1.05704 6.29718,-0.93584 l 91.00586,4.9845 c 2.21143,0.1212 4.28909,0.69476 6.15678,1.61735 -21.75205,10.57965 -37.30559,32.31844 -38.72028,58.13373"
       style="fill:#f9b039;fill-opacity:1;fill-rule:nonzero;stroke:none"
       id="path3394"
       inkscape:connector-curvature="0" /><path
       d="m 419.64449,117.66722 c -8.92919,18.70214 -8.5828,39.44418 -0.89941,57.10186 -13.72095,2.96911 -28.4804,1.64583 -42.13115,-4.87058 -13.64743,-6.51574 -23.95486,-17.16162 -30.27126,-29.69904 18.56041,-5.12755 34.90806,-17.8981 43.83724,-36.59891 8.92719,-18.70081 8.58014,-39.4402 0.89609,-57.09722 13.72162,-2.97044 28.4804,-1.64716 42.12783,4.86992 13.65207,6.51707 23.96018,17.16228 30.27789,29.69969 -18.56239,5.12623 -34.90937,17.89546 -43.83723,36.59428"
       style="fill:#65c881;fill-opacity:1;fill-rule:nonzero;stroke:none"
       id="path3396"
       inkscape:connector-curvature="0" /><path
       d="m 375.76022,96.71524 c -7.04757,14.75944 -20.09827,24.75096 -34.84116,28.45787 -3.17045,-13.91765 -1.8975,-28.95262 4.73018,-42.8345 6.62767,-13.87991 17.51595,-24.32046 30.3322,-30.60507 6.38791,13.79381 6.82437,30.2249 -0.22122,44.9817"
       style="fill:#65c881;fill-opacity:1;fill-rule:nonzero;stroke:none"
       id="path3398"
       inkscape:connector-curvature="0" /><path
       d="m 434.06218,124.5532 c 7.04758,-14.75812 20.09894,-24.74964 34.84249,-28.45391 3.17243,13.91699 1.89882,28.94997 -4.72819,42.82988 -6.62966,13.88122 -17.51927,24.32576 -30.33551,30.6097 -6.38792,-13.79645 -6.82371,-30.22822 0.22121,-44.98567"
       style="fill:#65c881;fill-opacity:1;fill-rule:nonzero;stroke:none"
       id="path3400"
       inkscape:connector-curvature="0" /><path
       d="m 105.24681,109.17781 c 7.79135,9.47492 17.61795,16.28672 28.32211,20.40824 l 3.73936,22.51766 c 2.01341,12.12414 -9.85243,21.88187 -21.36129,17.56298 L 94.579082,161.64752 C 92.6021,150.34795 87.817615,139.39013 80.028263,129.91587 62.993805,109.19834 36.300968,101.07982 11.758633,106.57429 c 0.386785,-0.38744 0.770259,-0.77821 1.208705,-1.13651 l 81.22363,-66.78673 c 0.437785,-0.35897 0.894113,-0.6623 1.349772,-0.96497 -10.133247,23.01638 -7.326403,50.77552 9.70607,71.49173"
       style="fill:#f14755;fill-opacity:1;fill-rule:nonzero;stroke:none"
       id="path3402"
       inkscape:connector-curvature="0" /><path
       d="m 67.685566,140.0637 c 3.717513,4.52088 6.514423,9.49015 8.494709,14.6793 L 17.496834,132.71874 c -4.348025,-1.63257 -7.406545,-4.81429 -9.024554,-8.56028 20.53341,-7.62378 44.539942,-1.94121 59.213286,15.90524"
       style="fill:#f14755;fill-opacity:1;fill-rule:nonzero;stroke:none"
       id="path3404"
       inkscape:connector-curvature="0" /><path
       d="M 117.58951,99.03065 C 102.91749,81.18554 101.98165,56.53392 113.42957,37.8596 c 3.36119,2.31078 5.89186,5.92695 6.65351,10.50878 l 10.2677,61.83335 c -4.70898,-2.94659 -9.0431,-6.65019 -12.76127,-11.17108"
       style="fill:#f14755;fill-opacity:1;fill-rule:nonzero;stroke:none"
       id="path3406"
       inkscape:connector-curvature="0" /></g></svg>