<?xml version="1.0" encoding="UTF-8" standalone="no"?>
<svg
   xmlns:dc="http://purl.org/dc/elements/1.1/"
   xmlns:cc="http://creativecommons.org/ns#"
   xmlns:rdf="http://www.w3.org/1999/02/22-rdf-syntax-ns#"
   xmlns:svg="http://www.w3.org/2000/svg"
   xmlns="http://www.w3.org/2000/svg"
   xmlns:sodipodi="http://sodipodi.sourceforge.net/DTD/sodipodi-0.dtd"
   xmlns:inkscape="http://www.inkscape.org/namespaces/inkscape"
   xml:space="preserve"
   width="195"
   viewBox="0 0 195 200"
   version="1.1"
   id="Layer_1"
   height="200"
   enable-background="new 0 0 32 32"
   inkscape:version="0.91 r13725"
   sodipodi:docname="ctmex_ball_backpack_2.svg"><sodipodi:namedview
     pagecolor="#ffffff"
     bordercolor="#666666"
     borderopacity="1"
     objecttolerance="10"
     gridtolerance="10"
     guidetolerance="10"
     inkscape:pageopacity="0"
     inkscape:pageshadow="2"
     inkscape:window-width="1139"
     inkscape:window-height="859"
     id="namedview3479"
     showgrid="true"
     showguides="true"
     inkscape:zoom="2.9954128"
     inkscape:cx="86.06223"
     inkscape:cy="105.55438"
     inkscape:window-x="0"
     inkscape:window-y="0"
     inkscape:window-maximized="0"
     inkscape:current-layer="Layer_1"><inkscape:grid
       type="xygrid"
       id="grid3481" /></sodipodi:namedview><metadata
     id="metadata3462"><rdf:RDF><cc:Work
         rdf:about=""><dc:format>image/svg+xml</dc:format><dc:type
           rdf:resource="http://purl.org/dc/dcmitype/StillImage" /><dc:title></dc:title></cc:Work></rdf:RDF></metadata><defs
     id="defs14" /><path
     style="fill:#000000"
     id="path4"
     d="M 48.989421,5.388769 C 25.52312,5.388769 6.5,24.40141 6.5,47.694384 6.5,71.086902 25.52312,90 48.989421,90 72.455723,90 91.478845,71.086902 91.478845,47.694384 91.478845,24.40141 72.455723,5.388769 48.989421,5.388769 Z m 0,3.085821 c 12.208863,0 23.112598,5.474844 30.349586,14.135053 -2.665091,0 -5.117486,1.692224 -6.449284,4.18079 -6.46143,11.845572 -11.153475,24.587029 -14.036683,37.826198 -1.180602,5.375302 -5.532731,9.556092 -11.001728,10.451976 -1.235227,0 -2.537225,0 -3.793698,0 -14.218781,0 -25.977729,-10.750604 -26.366204,-24.885656 C 17.253242,34.156588 24.694125,19.125651 37.513485,9.768645 41.137347,8.673676 45.007277,8.07642 48.989421,8.07642 Z m -20.770498,5.873015 c -9.06426,9.755177 -13.933332,22.795261 -13.562471,36.333059 0.433997,15.727734 13.60496,28.270105 29.496004,27.772392 1.402152,0 2.789128,0 4.173071,0 6.67994,-1.194511 12.026022,-6.271185 13.467626,-12.840999 2.82251,-12.940541 7.429905,-25.482912 13.752157,-37.129399 0.133127,0 0.301291,0 0.474216,-0.995426 1.393279,-1.791768 3.772693,-2.289481 5.785391,-1.592683 4.183316,6.271185 6.638973,13.736883 6.638973,21.799835 0,21.700293 -17.663458,39.319338 -39.454464,39.319338 -21.791003,0 -39.4544625,-17.619045 -39.4544625,-39.319338 0,-14.135052 7.4620415,-26.478338 18.6839645,-33.346779 z"
     inkscape:connector-curvature="0" /><g
     style="fill:#000000"
     transform="matrix(1.3691104,0.50809135,-0.51052876,1.3625739,123.77183,-15.651892)"
     id="g3528"><path
       style="fill:#000000"
       d="m 49,66 -28,0 c -4.962891,0 -9,-4.037598 -9,-9 L 12,41 C 12,21.009277 18.037109,10 29,10 l 12,0 c 10.962891,0 17,11.009277 17,31 l 0,16 c 0,4.962402 -4.037109,9 -9,9 z M 29,12 C 15.948242,12 14,30.169434 14,41 l 0,16 c 0,3.859863 3.140625,7 7,7 l 28,0 c 3.859375,0 7,-3.140137 7,-7 L 56,41 C 56,30.169434 54.051758,12 41,12 l -12,0 z"
       id="path3530"
       inkscape:connector-curvature="0" /><path
       style="fill:#000000"
       d="M 50.019531,27.196289 C 49.345703,23.82959 47.022461,16 40,16 l -10,0 c -7.022461,0 -9.345703,7.82959 -10.019531,11.196289 L 18.019531,26.803711 C 18.620117,23.800293 21.259766,14 30,14 l 10,0 c 8.740234,0 11.379883,9.800293 11.980469,12.803711 l -1.960938,0.392578 z"
       id="path3532"
       inkscape:connector-curvature="0" /><path
       style="fill:#000000"
       d="M 41.720703,12 28.279297,12 28.051758,11.316406 C 28.013672,11.20459 27.15625,8.5546874 28.695312,6.4194335 29.852539,4.8139648 31.973633,4 35,4 c 3.026367,0 5.147461,0.8139648 6.304687,2.4194336 1.539063,2.1352539 0.681641,4.7851564 0.643555,4.8969724 L 41.720703,12 Z M 29.8125,10 40.1875,10 C 40.265625,9.3544922 40.25293,8.3720703 39.673828,7.5776367 38.921875,6.5454102 37.305664,6 35,6 32.686523,6 31.067383,6.5493164 30.318359,7.5888672 29.74707,8.3813477 29.735352,9.3583984 29.8125,10 Z"
       id="path3534"
       inkscape:connector-curvature="0" /><path
       style="fill:#000000"
       d="m 49,60 -28,0 c -1.654297,0 -3,-1.345703 -3,-3 l 0,-17 c 0,-6.06543 4.93457,-11 11,-11 l 12,0 c 6.06543,0 11,4.93457 11,11 l 0,17 c 0,1.654297 -1.345703,3 -3,3 z M 29,31 c -4.962891,0 -9,4.037598 -9,9 l 0,17 c 0,0.551269 0.448242,1 1,1 l 28,0 c 0.551758,0 1,-0.448731 1,-1 l 0,-17 c 0,-4.962402 -4.037109,-9 -9,-9 l -12,0 z"
       id="path3536"
       inkscape:connector-curvature="0" /><rect
       style="fill:#000000"
       height="2"
       width="18"
       x="26"
       y="37"
       id="rect3538" /><rect
       style="fill:#000000"
       height="4"
       width="2"
       x="40"
       y="38"
       id="rect3540" /><path
       style="fill:#000000"
       d="m 14,58 -4,0 C 8.3457031,58 7,56.654297 7,55 l 0,-8 c 0,-4.187012 2.4111328,-7 6,-7 l 1,0 0,18 z M 12,42.111328 C 9.8085938,42.630371 9,44.878906 9,47 l 0,8 c 0,0.551269 0.4482422,1 1,1 l 2,0 0,-13.888672 z"
       id="path3542"
       inkscape:connector-curvature="0" /><path
       style="fill:#000000"
       d="m 60,58 -4,0 0,-18 1,0 c 3.588867,0 6,2.812988 6,7 l 0,8 c 0,1.654297 -1.345703,3 -3,3 z m -2,-2 2,0 c 0.551758,0 1,-0.448731 1,-1 l 0,-8 c 0,-2.121094 -0.808594,-4.369629 -3,-4.888672 L 58,56 Z"
       id="path3544"
       inkscape:connector-curvature="0" /></g><path
     d="M 147.48942,108.38876 C 124.02313,108.38876 105,127.4014 105,150.69438 105,174.0869 124.02313,193 147.48942,193 c 23.4663,0 42.48942,-18.9131 42.48942,-42.30562 0,-23.29298 -19.02312,-42.30562 -42.48942,-42.30562 z m 0,3.08582 c 12.20886,0 23.1126,5.47485 30.34959,14.13505 -2.66509,0 -5.11749,1.69223 -6.44928,4.1808 -6.46144,11.84557 -11.15348,24.58703 -14.03669,37.82619 -1.1806,5.37531 -5.53272,9.5561 -11.00173,10.45198 -1.23523,0 -2.53722,0 -3.79369,0 -14.21879,0 -25.97774,-10.75061 -26.3662,-24.88566 -0.43819,-16.02636 7.00271,-31.0573 19.82207,-40.4143 3.62385,-1.09497 7.49379,-1.69223 11.47593,-1.69223 z m -20.77049,5.87302 c -9.06427,9.75518 -13.93334,22.79527 -13.56248,36.33306 0.43399,15.72773 13.60496,28.2701 29.496,27.77239 1.40216,0 2.78914,0 4.17308,0 6.67993,-1.19451 12.02602,-6.27118 13.46762,-12.841 2.82251,-12.94054 7.4299,-25.48291 13.75216,-37.1294 0.13313,0 0.30126,0 0.4742,-0.99542 1.39328,-1.79177 3.77269,-2.28949 5.78538,-1.59268 4.18332,6.27118 6.63898,13.73687 6.63898,21.79983 0,21.70029 -17.66346,39.31934 -39.45446,39.31934 -21.79101,0 -39.45447,-17.61905 -39.45447,-39.31934 0,-14.13505 7.46205,-26.47834 18.68397,-33.34678 z"
     id="path3616"
     style="fill:#000000"
     inkscape:connector-curvature="0" /><g
     id="g3691"
     transform="matrix(-1.3691104,0.50809135,0.51052876,1.3625739,71.086493,81.34811)"
     style="fill:#000000"><path
       id="path3693"
       d="m 49,66 -28,0 c -4.962891,0 -9,-4.037598 -9,-9 L 12,41 C 12,21.009277 18.037109,10 29,10 l 12,0 c 10.962891,0 17,11.009277 17,31 l 0,16 c 0,4.962402 -4.037109,9 -9,9 z M 29,12 C 15.948242,12 14,30.169434 14,41 l 0,16 c 0,3.859863 3.140625,7 7,7 l 28,0 c 3.859375,0 7,-3.140137 7,-7 L 56,41 C 56,30.169434 54.051758,12 41,12 l -12,0 z"
       style="fill:#000000"
       inkscape:connector-curvature="0" /><path
       id="path3695"
       d="M 50.019531,27.196289 C 49.345703,23.82959 47.022461,16 40,16 l -10,0 c -7.022461,0 -9.345703,7.82959 -10.019531,11.196289 L 18.019531,26.803711 C 18.620117,23.800293 21.259766,14 30,14 l 10,0 c 8.740234,0 11.379883,9.800293 11.980469,12.803711 l -1.960938,0.392578 z"
       style="fill:#000000"
       inkscape:connector-curvature="0" /><path
       id="path3697"
       d="M 41.720703,12 28.279297,12 28.051758,11.316406 C 28.013672,11.20459 27.15625,8.5546874 28.695312,6.4194335 29.852539,4.8139648 31.973633,4 35,4 c 3.026367,0 5.147461,0.8139648 6.304687,2.4194336 1.539063,2.1352539 0.681641,4.7851564 0.643555,4.8969724 L 41.720703,12 Z M 29.8125,10 40.1875,10 C 40.265625,9.3544922 40.25293,8.3720703 39.673828,7.5776367 38.921875,6.5454102 37.305664,6 35,6 32.686523,6 31.067383,6.5493164 30.318359,7.5888672 29.74707,8.3813477 29.735352,9.3583984 29.8125,10 Z"
       style="fill:#000000"
       inkscape:connector-curvature="0" /><path
       id="path3699"
       d="m 49,60 -28,0 c -1.654297,0 -3,-1.345703 -3,-3 l 0,-17 c 0,-6.06543 4.93457,-11 11,-11 l 12,0 c 6.06543,0 11,4.93457 11,11 l 0,17 c 0,1.654297 -1.345703,3 -3,3 z M 29,31 c -4.962891,0 -9,4.037598 -9,9 l 0,17 c 0,0.551269 0.448242,1 1,1 l 28,0 c 0.551758,0 1,-0.448731 1,-1 l 0,-17 c 0,-4.962402 -4.037109,-9 -9,-9 l -12,0 z"
       style="fill:#000000"
       inkscape:connector-curvature="0" /><rect
       id="rect3701"
       y="37"
       x="26"
       width="18"
       height="2"
       style="fill:#000000" /><rect
       id="rect3703"
       y="38"
       x="40"
       width="2"
       height="4"
       style="fill:#000000" /><path
       id="path3705"
       d="m 14,58 -4,0 C 8.3457031,58 7,56.654297 7,55 l 0,-8 c 0,-4.187012 2.4111328,-7 6,-7 l 1,0 0,18 z M 12,42.111328 C 9.8085938,42.630371 9,44.878906 9,47 l 0,8 c 0,0.551269 0.4482422,1 1,1 l 2,0 0,-13.888672 z"
       style="fill:#000000"
       inkscape:connector-curvature="0" /><path
       id="path3707"
       d="m 60,58 -4,0 0,-18 1,0 c 3.588867,0 6,2.812988 6,7 l 0,8 c 0,1.654297 -1.345703,3 -3,3 z m -2,-2 2,0 c 0.551758,0 1,-0.448731 1,-1 l 0,-8 c 0,-2.121094 -0.808594,-4.369629 -3,-4.888672 L 58,56 Z"
       style="fill:#000000"
       inkscape:connector-curvature="0" /></g></svg>