<?xml version="1.0" encoding="UTF-8" standalone="no"?>
<svg
   xmlns:dc="http://purl.org/dc/elements/1.1/"
   xmlns:cc="http://creativecommons.org/ns#"
   xmlns:rdf="http://www.w3.org/1999/02/22-rdf-syntax-ns#"
   xmlns:svg="http://www.w3.org/2000/svg"
   xmlns="http://www.w3.org/2000/svg"
   viewBox="0 0 400 280"
   height="280"
   width="400"
   xml:space="preserve"
   version="1.1"
   id="svg3355"><metadata
     id="metadata3361"><rdf:RDF><cc:Work
         rdf:about=""><dc:format>image/svg+xml</dc:format><dc:type
           rdf:resource="http://purl.org/dc/dcmitype/StillImage" /><dc:title></dc:title></cc:Work></rdf:RDF></metadata><defs
     id="defs3359"><clipPath
       id="clipPath3371"
       clipPathUnits="userSpaceOnUse"><path
         id="path3373"
         d="m 0,789.3515 0,-736.70297 595,0 0,736.70297 -595,0 z" /></clipPath><clipPath
       id="clipPath3377"
       clipPathUnits="userSpaceOnUse"><path
         id="path3379"
         d="m 595,789.3515 0,-736.06302 -594.95428937,0 0,736.06302 594.95428937,0 z" /></clipPath><clipPath
       id="clipPath3383"
       clipPathUnits="userSpaceOnUse"><path
         id="path3385"
         d="M 0,0 595,0 595,842 0,842 0,0 Z" /></clipPath><clipPath
       id="clipPath3393"
       clipPathUnits="userSpaceOnUse"><path
         id="path3395"
         d="m 0,789.3515 0,-736.70297 595,0 0,736.70297 -595,0 z" /></clipPath><clipPath
       id="clipPath3399"
       clipPathUnits="userSpaceOnUse"><path
         id="path3401"
         d="M 0,0 595,0 595,842 0,842 0,0 Z" /></clipPath></defs><g
     transform="matrix(1.25,0,0,-1.25,0,280)"
     id="g3363"><g
       id="g3365" /><g
       transform="matrix(0,1.9600186,-1.9600186,0,986.9156,-474.53711)"
       id="g3389"><g
         clip-path="url(#clipPath3393)"
         id="g3391"><g
           clip-path="url(#clipPath3399)"
           id="g3397"><path
             id="path3403"
             style="fill:#ffffff;fill-opacity:1;fill-rule:nonzero;stroke:none"
             d="m 292.9206,410.2428 c 0.01,0.0198 0.0182,0.0403 0.0281,0.0594 0.1021,0.2064 0.2042,0.4114 0.2964,0.6247 0.0229,0.0533 0.0404,0.1089 0.0632,0.1623 0.013,0.0327 0.0244,0.0655 0.0381,0.0983 0.1044,0.259 0.2027,0.5195 0.2903,0.7816 0.009,0.0282 0.0168,0.0564 0.0251,0.0846 0.0884,0.2697 0.1684,0.5386 0.237,0.8113 0.008,0.0267 0.0129,0.0564 0.0182,0.0831 0.0686,0.2727 0.1288,0.5477 0.1783,0.8228 0.008,0.0464 0.0122,0.0921 0.0198,0.1379 0.0427,0.2559 0.0831,0.5134 0.1097,0.7709 0.009,0.0899 0.013,0.1806 0.0198,0.2697 0.0176,0.2141 0.0374,0.4297 0.0458,0.6446 0.004,0.1516 7e-4,0.3032 0.002,0.4555 -8e-4,0.1524 0.002,0.3048 -0.002,0.4571 -0.008,0.2149 -0.0282,0.429 -0.0458,0.6438 -0.007,0.0891 -0.0106,0.1798 -0.0198,0.2689 -0.0266,0.2575 -0.067,0.5158 -0.1097,0.7725 -0.008,0.0458 -0.0114,0.0922 -0.0198,0.1364 -0.0495,0.2758 -0.1097,0.5493 -0.1783,0.8236 -0.005,0.0282 -0.0106,0.0556 -0.0182,0.083 -0.0686,0.272 -0.1486,0.5417 -0.237,0.8114 -0.008,0.0274 -0.016,0.0563 -0.0251,0.0845 -0.0876,0.2621 -0.1859,0.5219 -0.2903,0.7809 -0.0137,0.0328 -0.0251,0.0671 -0.0381,0.0983 -0.0228,0.0541 -0.0403,0.1097 -0.0632,0.1638 -0.0922,0.2126 -0.1943,0.4183 -0.2964,0.6232 -0.01,0.0198 -0.0182,0.0404 -0.0281,0.0594 -2.1858,4.3631 -6.6547,7.1514 -11.577,7.1484 l -15.5157,0 c -0.464,0 -0.8655,-0.2857 -1.0377,-0.6887 -0.0571,-0.1349 -0.0899,-0.2827 -0.0899,-0.4388 l 0,-5.8479 c 0,-0.1547 0.0328,-0.3025 0.0899,-0.4373 0.1722,-0.4046 0.5737,-0.6895 1.0377,-0.6895 l 15.5157,0 c 0.3352,0 0.662,-0.0343 0.9789,-0.0998 2.2094,-0.4518 3.8733,-2.4082 3.8733,-4.7532 0,-2.3442 -1.6639,-4.3006 -3.8733,-4.7531 -0.3169,-0.064 -0.6437,-0.0983 -0.9789,-0.0983 l -15.5157,-7e-4 c -0.464,0 -0.8655,-0.2865 -1.0377,-0.6895 -0.0571,-0.1356 -0.0899,-0.2842 -0.0899,-0.4388 l 0,-5.8479 c 0,-0.1547 0.0328,-0.3025 0.0899,-0.4373 0.1722,-0.4038 0.5737,-0.6895 1.0377,-0.6895 l 15.5157,0 c 4.9223,-0.003 9.3912,2.786 11.577,7.1484" /><path
             id="path3405"
             style="fill:#ffffff;fill-opacity:1;fill-rule:nonzero;stroke:none"
             d="m 292.9206,428.0478 c 0.01,0.0198 0.0182,0.0396 0.0281,0.0587 0.1021,0.2064 0.2042,0.4114 0.2964,0.6247 0.0229,0.0533 0.0404,0.1097 0.0632,0.163 0.013,0.0335 0.0244,0.0663 0.0381,0.0983 0.1044,0.259 0.2027,0.5196 0.2903,0.7817 0.009,0.0281 0.0168,0.0563 0.0251,0.0845 0.0884,0.269 0.1684,0.5394 0.237,0.8114 0.008,0.0282 0.0129,0.0556 0.0182,0.083 0.0686,0.2735 0.1288,0.5463 0.1783,0.8221 0.008,0.0457 0.0122,0.0921 0.0198,0.1378 0.0427,0.2576 0.0831,0.5151 0.1097,0.7718 0.009,0.0899 0.013,0.1798 0.0198,0.2689 0.0176,0.2149 0.0374,0.4289 0.0458,0.6453 0.004,0.1516 7e-4,0.3032 0.002,0.4564 -8e-4,0.1523 0.002,0.3039 -0.002,0.4555 -0.008,0.2156 -0.0282,0.4297 -0.0458,0.6446 -0.007,0.0899 -0.0106,0.1797 -0.0198,0.2689 -0.0266,0.2575 -0.067,0.515 -0.1097,0.7725 -0.008,0.0449 -0.0114,0.0907 -0.0198,0.1379 -0.0495,0.2743 -0.1097,0.5478 -0.1783,0.8213 -0.005,0.0274 -0.0106,0.0556 -0.0182,0.0822 -0.0686,0.272 -0.1486,0.5432 -0.237,0.8122 -0.008,0.0289 -0.016,0.0571 -0.0251,0.0853 -0.0876,0.2621 -0.1859,0.5219 -0.2903,0.7809 -0.0137,0.0327 -0.0251,0.0663 -0.0381,0.0983 -0.0228,0.0533 -0.0403,0.1089 -0.0632,0.1638 -0.0922,0.2117 -0.1943,0.4182 -0.2964,0.6231 -0.01,0.0206 -0.0182,0.0397 -0.0281,0.0595 -2.1858,4.363 -6.6547,7.1514 -11.577,7.1491 l -15.5157,0 c -0.464,0 -0.8655,-0.2864 -1.0377,-0.6895 -0.0571,-0.1356 -0.0899,-0.2834 -0.0899,-0.4388 l 0,-5.8479 c 0,-0.1547 0.0328,-0.3032 0.0899,-0.4373 0.1722,-0.4053 0.5737,-0.6895 1.0377,-0.6895 l 15.5157,-10e-4 c 0.3352,0 0.662,-0.0335 0.9789,-0.0975 2.2094,-0.4525 3.8733,-2.4097 3.8733,-4.7531 0,-2.345 -1.6639,-4.3014 -3.8733,-4.754 -0.3169,-0.0647 -0.6437,-0.0982 -0.9789,-0.0982 l -15.5157,-0.002 c -0.464,0 -0.8655,-0.2856 -1.0377,-0.6894 -0.0571,-0.1341 -0.0899,-0.2834 -0.0899,-0.4381 l 0,-5.8479 c 0,-0.1547 0.0328,-0.3024 0.0899,-0.4373 0.1722,-0.4053 0.5737,-0.6902 1.0377,-0.6902 l 15.5157,0 c 4.9223,-0.002 9.3912,2.7868 11.577,7.1491" /><path
             id="path3407"
             style="fill:#ffffff;fill-opacity:1;fill-rule:nonzero;stroke:none"
             d="m 269.1167,477.1456 c 0.4381,-0.4381 1.1558,-0.4381 1.5946,-8e-4 l 4.1345,4.1361 c 0.4373,0.4373 0.4381,1.1557 -0.002,1.593 l 8e-4,0.002 c -1.2495,1.2426 -1.9496,2.9339 -1.945,4.6952 0,3.0055 2.0189,5.6369 4.9215,6.4148 2.9041,0.7786 5.9675,-0.4907 7.4699,-3.0939 1.5031,-2.6032 1.0696,-5.8906 -1.0544,-8.0161 l 0,-8e-4 c -0.4381,-0.4388 -0.4389,-1.1564 0,-1.5945 l 4.136,-4.1353 c 0.4381,-0.4381 1.1557,-0.4381 1.5946,0 5.7564,5.7595 5.7564,15.0937 0,20.8524 -5.7581,5.7565 -15.0945,5.7565 -20.851,0 -5.7587,-5.7587 -5.7603,-15.0944 0,-20.8524" /><path
             id="path3409"
             style="fill:#ffffff;fill-opacity:1;fill-rule:nonzero;stroke:none"
             d="m 294.2919,453.7631 7e-4,17.7167 c 0,0.6178 -0.5043,1.1245 -1.1229,1.1275 l -0.005,8e-4 -5.8471,0 -0.003,-8e-4 c -0.6201,-0.003 -1.1244,-0.5097 -1.1244,-1.1275 l -8e-4,-4.8073 -20.3984,0 c -0.6201,0 -1.1283,-0.5081 -1.1283,-1.1275 l 0,-5.8479 c 0,-0.1448 0.0298,-0.2811 0.0793,-0.4076 0.1653,-0.4198 0.5729,-0.7207 1.049,-0.7207 l 20.3984,0 0,-4.8057 c 0,-0.6201 0.5066,-1.1275 1.1275,-1.1275 l 5.8472,0 c 0.6209,0 1.1283,0.5074 1.1283,1.1275" /><path
             id="path3411"
             style="fill:#ffffff;fill-opacity:1;fill-rule:nonzero;stroke:none"
             d="m 285.9131,340.4358 c 0.2232,-0.0313 0.4487,-0.0549 0.6765,-0.0709 0.2065,-0.0152 0.4137,-0.0251 0.6225,-0.0289 0.1074,-0.002 0.2133,-0.0122 0.3207,-0.0122 l 5.5279,0 c 0.6202,0 1.1283,0.5097 1.1283,1.1283 l 0,5.8479 c 0,0.6209 -0.5081,1.1283 -1.1283,1.1283 l -5.6003,0 c -0.5028,0 -0.982,0.0975 -1.4261,0.2682 -0.013,0.005 -0.0252,0.008 -0.0374,0.0137 -0.1996,0.0792 -0.3885,0.1744 -0.5698,0.2834 -0.0138,0.007 -0.0252,0.0144 -0.0374,0.0221 -0.1836,0.1135 -0.3588,0.2392 -0.5211,0.3794 l -0.002,10e-4 c -0.5013,0.4327 -0.8898,0.9896 -1.123,1.622 -0.005,0.01 -0.008,0.0182 -0.0114,0.0281 -0.0739,0.2073 -0.1333,0.4213 -0.1729,0.643 l -8e-4,0.01 c -0.0419,0.2294 -0.0655,0.4587 -0.0655,0.6956 0,0.2316 0.0236,0.4586 0.0632,0.6811 0.002,0.0122 0.003,0.0236 0.005,0.0373 0.0381,0.2095 0.0944,0.4122 0.1645,0.6087 0.009,0.0259 0.0191,0.0526 0.0282,0.0785 0.0716,0.1889 0.1562,0.3703 0.2537,0.5432 0.0145,0.0267 0.032,0.0526 0.048,0.0792 0.1013,0.1684 0.2095,0.3299 0.3337,0.4815 0.0129,0.0168 0.0274,0.0313 0.0411,0.048 0.1151,0.1341 0.24,0.2606 0.371,0.3794 0.0359,0.032 0.0709,0.0671 0.1075,0.0983 0.1325,0.1105 0.2727,0.2125 0.4182,0.3055 0.0549,0.035 0.1097,0.0678 0.1669,0.1006 0.1424,0.0822 0.2918,0.1577 0.4464,0.2216 0.0655,0.0275 0.1318,0.0488 0.1988,0.0732 0.125,0.0434 0.2522,0.0815 0.3825,0.1135 0.0488,0.0114 0.0929,0.032 0.1425,0.0427 0.2582,0.0518 0.5272,0.08 0.7999,0.08 l 5.5957,0 0,-0.004 c 0.0153,0 0.0282,0.004 0.0435,0.004 0.5995,0.0243 1.0848,0.5188 1.0848,1.1237 l 0,5.8471 c 0,0.6095 -0.4914,1.1077 -1.0955,1.1253 -0.0114,0 -0.0213,0.003 -0.0328,0.003 l 0,-0.003 -5.5279,0 c -0.1417,0 -0.2834,-0.0107 -0.4236,-0.0145 -0.1691,-0.006 -0.3367,-0.0122 -0.5043,-0.0236 -0.2415,-0.0183 -0.4808,-0.0434 -0.7184,-0.0762 -0.0313,-0.004 -0.0602,-0.008 -0.0899,-0.0122 -2.3846,-0.3451 -4.5833,-1.398 -6.3378,-2.9796 -1.7492,1.5778 -3.941,2.6307 -6.3195,2.9796 -0.0457,0.006 -0.0907,0.0122 -0.1364,0.0183 -0.2247,0.0305 -0.4502,0.0548 -0.6765,0.0716 -0.2072,0.0152 -0.4137,0.0236 -0.6232,0.029 -0.1067,0.002 -0.2133,0.0106 -0.3215,0.0106 l -5.5272,0 c -0.6201,0 -1.1275,-0.5089 -1.1275,-1.1283 l 0,-5.8471 c 0,-0.6202 0.5074,-1.1276 1.1275,-1.1276 l 5.6003,0 c 0.5036,0 0.9828,-0.0975 1.4262,-0.2681 0.0122,-0.006 0.0252,-0.01 0.0381,-0.0137 0.1989,-0.08 0.3878,-0.1753 0.5691,-0.285 0.0137,-0.007 0.0251,-0.0137 0.0373,-0.0213 0.1844,-0.1127 0.3581,-0.24 0.5211,-0.3794 l 8e-4,-10e-4 c 0.5021,-0.4335 0.8898,-0.9897 1.1245,-1.622 0.004,-0.01 0.007,-0.019 0.0114,-0.0282 0.0739,-0.2064 0.1326,-0.4213 0.1722,-0.6422 7e-4,-0.005 7e-4,-0.0107 7e-4,-0.0107 0.0412,-0.2293 0.0656,-0.4586 0.0656,-0.6948 0,-0.2323 -0.0244,-0.4609 -0.0633,-0.6803 -10e-4,-0.0137 -0.003,-0.0267 -0.005,-0.0389 -0.0389,-0.2095 -0.0937,-0.4121 -0.1646,-0.6079 -0.008,-0.0274 -0.0182,-0.0541 -0.0281,-0.08 -0.0717,-0.1882 -0.1555,-0.3703 -0.2545,-0.5424 -0.0145,-0.029 -0.0312,-0.0518 -0.0465,-0.0793 -0.1013,-0.1683 -0.211,-0.3306 -0.3344,-0.4822 -0.0122,-0.0152 -0.0274,-0.0305 -0.0412,-0.0465 -0.1142,-0.1364 -0.2399,-0.2628 -0.371,-0.3809 -0.0358,-0.032 -0.0708,-0.0663 -0.1074,-0.0968 -0.1318,-0.1119 -0.2727,-0.2125 -0.4183,-0.3055 -0.054,-0.035 -0.1097,-0.0693 -0.1653,-0.1013 -0.1432,-0.0815 -0.2925,-0.1584 -0.4472,-0.2217 -0.0655,-0.0266 -0.1333,-0.0495 -0.2003,-0.0731 -0.1242,-0.0442 -0.2514,-0.0823 -0.3817,-0.1128 -0.048,-0.0122 -0.0937,-0.0335 -0.1425,-0.0434 -0.2575,-0.0518 -0.5264,-0.0815 -0.7999,-0.0815 l -5.5958,0 0,0.006 c -0.0152,0 -0.0282,-0.005 -0.0426,-0.006 -0.5996,-0.0221 -1.0849,-0.5181 -1.0849,-1.123 l 0,-5.8479 c 0,-0.6095 0.4899,-1.1062 1.0948,-1.1222 0.0114,0 0.0228,-0.005 0.0327,-0.005 l 0,0.005 5.5272,0 c 0.1425,0 0.2834,0.008 0.4251,0.0137 0.1684,0.005 0.336,0.0115 0.5044,0.0229 0.2399,0.0183 0.4799,0.0434 0.7176,0.0762 0.0305,0.005 0.0602,0.008 0.0907,0.0122 2.3838,0.3458 4.5825,1.3987 6.3362,2.9788 1.75,-1.577 3.9426,-2.6291 6.3203,-2.9781 0.0457,-0.007 0.0914,-0.0129 0.1371,-0.019" /><path
             id="path3413"
             style="fill:#ffffff;fill-opacity:1;fill-rule:nonzero;stroke:none"
             d="m 280.5954,389.6166 -0.1211,0.2933 10e-4,0 -7e-4,0.002 c 2.2482,-0.2529 4.1985,-1.6776 5.1173,-3.7475 0.3207,-0.7245 0.4838,-1.5107 0.4815,-2.3038 -0.002,-1.4209 -0.4762,-2.7998 -1.3447,-3.9243 -0.0305,-0.035 -0.0617,-0.0701 -0.0929,-0.1051 l -2.0562,4.9809 -1.9847,4.8042 z m 1.8848,-20.6711 0.0115,0.005 1.4467,0.6102 c 0.2728,0.1158 0.5722,0.2423 0.8388,0.3573 l 0.2065,0.0869 c 0.0167,0.006 0.0335,0.0152 0.0503,0.0213 0.179,0.0769 0.3283,0.1409 0.4235,0.1836 0,0 0,0 0.2377,0.112 0.1882,0.0884 0.3764,0.179 0.5592,0.2743 0.144,0.0754 0.2872,0.1516 0.4282,0.2308 0.163,0.0922 0.3245,0.1874 0.483,0.2826 0.1684,0.1044 0.3352,0.2095 0.499,0.3185 l 8e-4,0.002 0.005,8e-4 c 0.0884,0.0602 0.1753,0.1165 0.2606,0.176 l 0.006,0.005 c 0.01,0.008 0.0137,0.009 0.0137,0.009 l 0,7e-4 c 0.0206,0.0153 0.0396,0.0305 0.0602,0.0457 l -0.007,0.0183 c 5.7192,4.0827 7.7647,11.6349 4.8834,18.0466 -2.8866,6.4208 -9.9055,9.907 -16.7621,8.3247 l -0.0716,-0.016 c -1.1801,-0.2766 -2.3213,-0.7009 -3.3955,-1.2617 l -0.0274,-0.0137 c -0.7969,-0.419 -1.5527,-0.9142 -2.2581,-1.4726 l -0.005,-0.005 c -3.6332,-2.9361 -5.7215,-7.3769 -5.6628,-12.0493 0,-4.0599 1.1999,-7.3777 3.97,-10.9012 l 0.0335,-0.0442 c 0.4083,-0.4335 1.0917,-0.4815 1.5496,-0.0914 l 4.4537,3.7909 c 0.4724,0.403 0.5379,1.1344 0.1356,1.6082 l 0,0.002 -0.0289,0.0457 c -1.433,1.9648 -1.8543,3.647 -1.8543,5.7489 -0.0419,1.203 0.2697,2.3907 0.9005,3.4169 l 0.0114,0 c 0.005,0.008 0.0114,0.0152 0.0167,0.0236 l 3.9571,-9.5794 0.3969,-0.9622 c 0.01,-0.029 0.0145,-0.0572 0.0259,-0.0854 l 0.0807,-0.1958 c -0.008,-0.003 -0.0152,-0.006 -0.0243,-0.0106 l 2.6984,-6.529 c 0.1989,-0.3901 0.6019,-0.6179 1.0216,-0.6087 0.144,-0.002 0.2895,0.0213 0.4312,0.0792" /><path
             id="path3415"
             style="fill:#ffffff;fill-opacity:1;fill-rule:nonzero;stroke:none"
             d="m 246.6385,481.9414 0.016,0 c 1.5306,0 2.7983,-1.1435 2.7983,-2.7053 0,-0.966 -0.3558,-1.5458 -0.8662,-2.1019 l -0.2933,0.2857 c 0.4563,0.4715 0.7961,1.0125 0.7961,1.8238 0,1.2997 -1.0597,2.281 -2.4204,2.281 l -0.0145,0 c -1.3682,0 -2.4356,-0.9973 -2.4356,-2.2886 0,-0.7809 0.3017,-1.3142 0.8426,-1.8627 l -0.2628,-0.2705 c -0.5645,0.5714 -0.9432,1.19 -0.9432,2.1492 0,1.5458 1.2289,2.6893 2.783,2.6893" /><path
             id="path3417"
             style="fill:#ffffff;fill-opacity:1;fill-rule:nonzero;stroke:none"
             d="m 246.6385,471.3708 0.016,0 c 1.3371,0 2.4349,0.9737 2.4349,2.3107 0,1.3386 -1.0826,2.2962 -2.4204,2.2962 l -0.0145,0 c -1.3378,0 -2.4356,-0.9736 -2.4356,-2.3107 0,-1.3378 1.0818,-2.2962 2.4196,-2.2962 z m 0,5.0244 0.016,0 c 1.4757,0 2.7983,-1.0895 2.7983,-2.7282 0,-1.6395 -1.3066,-2.7137 -2.7838,-2.7137 l -0.0145,0 c -1.4772,0 -2.799,1.0902 -2.799,2.7282 0,1.6395 1.3066,2.7137 2.783,2.7137" /><path
             id="path3419"
             style="fill:#ffffff;fill-opacity:1;fill-rule:nonzero;stroke:none"
             d="m 249.3599,469.5896 0,-0.4015 -5.0404,0 0,-3.1768 -0.371,0 0,3.5783 5.4114,0" /><path
             id="path3421"
             style="fill:#ffffff;fill-opacity:1;fill-rule:nonzero;stroke:none"
             d="m 249.3599,464.8083 0,-3.8496 -0.3711,0 0,3.4473 -2.1263,0 0,-3.0991 -0.3702,0 0,3.0991 -2.1728,0 0,-3.4861 -0.371,0 0,3.8884 5.4114,0" /><path
             id="path3423"
             style="fill:#ffffff;fill-opacity:1;fill-rule:nonzero;stroke:none"
             d="m 246.6385,459.8723 0.016,0 c 1.4613,0 2.7983,-1.0589 2.7983,-2.6756 0,-0.8799 -0.2628,-1.4368 -0.7116,-1.9785 l -0.3009,0.2636 c 0.371,0.4251 0.6491,0.9196 0.6491,1.7385 0,1.315 -1.1131,2.2338 -2.4204,2.2338 l -0.0145,0 c -1.3995,0 -2.4432,-0.8731 -2.4432,-2.3183 0,-0.6887 0.2865,-1.3294 0.6186,-1.7241 l 1.5534,0 0,1.8086 0.3718,0 0,-2.1948 -2.0882,0 c -0.4327,0.4868 -0.8114,1.2441 -0.8114,2.1255 0,1.7088 1.2601,2.7213 2.783,2.7213" /><path
             id="path3425"
             style="fill:#ffffff;fill-opacity:1;fill-rule:nonzero;stroke:none"
             d="m 243.9485,453.1201 5.41138,0 0,0.40302 -5.41138,0 0,-0.40302 z" /><path
             id="path3427"
             style="fill:#ffffff;fill-opacity:1;fill-rule:nonzero;stroke:none"
             d="m 246.6385,446.6749 0.016,0 c 1.3371,0 2.4349,0.9736 2.4349,2.3107 0,1.3385 -1.0826,2.2962 -2.4204,2.2962 l -0.0145,0 c -1.3378,0 -2.4356,-0.9737 -2.4356,-2.3107 0,-1.3378 1.0818,-2.2962 2.4196,-2.2962 z m 0,5.0244 0.016,0 c 1.4757,0 2.7983,-1.0895 2.7983,-2.7282 0,-1.6395 -1.3066,-2.7137 -2.7838,-2.7137 l -0.0145,0 c -1.4772,0 -2.799,1.0902 -2.799,2.7282 0,1.6395 1.3066,2.7137 2.783,2.7137" /><path
             id="path3429"
             style="fill:#ffffff;fill-opacity:1;fill-rule:nonzero;stroke:none"
             d="m 244.3195,440.7752 c 0,-1.5077 1.0285,-2.4585 2.319,-2.4585 l 0.016,0 c 1.283,0 2.3343,0.9508 2.3343,2.4585 l 0,1.3995 -4.6693,0 0,-1.3995 z m 5.0404,1.801 0,-1.801 c 0,-1.7012 -1.168,-2.876 -2.6909,-2.876 l -0.0145,0 c -1.5229,0 -2.706,1.1748 -2.706,2.876 l 0,1.801 5.4114,0" /><path
             id="path3431"
             style="fill:#ffffff;fill-opacity:1;fill-rule:nonzero;stroke:none"
             d="m 249.3599,436.5355 0,-3.8488 -0.3711,0 0,3.4481 -2.1263,0 0,-3.1007 -0.3702,0 0,3.1007 -2.1728,0 0,-3.487 -0.371,0 0,3.8877 5.4114,0" /><path
             id="path3433"
             style="fill:#ffffff;fill-opacity:1;fill-rule:nonzero;stroke:none"
             d="m 248.9888,427.5435 0,1.8863 0.3711,0 0,-4.1749 -0.3711,0 0,1.8863 -5.0403,0 0,0.4023 5.0403,0" /><path
             id="path3435"
             style="fill:#ffffff;fill-opacity:1;fill-rule:nonzero;stroke:none"
             d="m 249.3599,424.0375 0,-3.8504 -0.3711,0 0,3.4481 -2.1263,0 0,-3.0999 -0.3702,0 0,3.0999 -2.1728,0 0,-3.4862 -0.371,0 0,3.8885 5.4114,0" /><path
             id="path3437"
             style="fill:#ffffff;fill-opacity:1;fill-rule:nonzero;stroke:none"
             d="m 249.3599,418.8623 0,-0.3794 -4.7075,-3.7331 4.7075,0 0,-0.387 -5.4114,0 0,0.3009 4.8087,3.8123 -4.8087,0 0,0.3863 5.4114,0" /><path
             id="path3439"
             style="fill:#ffffff;fill-opacity:1;fill-rule:nonzero;stroke:none"
             d="m 243.9485,412.3028 5.41138,0 0,0.40225 -5.41138,0 0,-0.40225 z" /><path
             id="path3441"
             style="fill:#ffffff;fill-opacity:1;fill-rule:nonzero;stroke:none"
             d="m 244.737,410.9909 0.3017,-0.2628 c -0.5493,-0.5943 -0.8045,-1.1436 -0.8045,-1.9405 0,-0.8113 0.4563,-1.3682 1.0749,-1.3682 l 0.016,0 c 0.5714,0 0.9036,0.3017 1.1512,1.5305 0.2628,1.2982 0.7032,1.8246 1.5229,1.8246 l 0.0152,0 c 0.8045,0 1.4224,-0.7336 1.4224,-1.7393 0,-0.7885 -0.2164,-1.3065 -0.6567,-1.8558 l -0.3169,0.256 c 0.4403,0.5104 0.611,1.0201 0.611,1.6158 0,0.7962 -0.4564,1.3218 -1.0209,1.3218 l -0.0152,0 c -0.5722,0 -0.9204,-0.294 -1.1832,-1.5777 -0.2552,-1.2517 -0.7032,-1.7782 -1.4924,-1.7782 l -0.0145,0 c -0.8739,0 -1.4772,0.7504 -1.4772,1.7942 0,0.8654 0.2864,1.5305 0.8662,2.1796" /><path
             id="path3443"
             style="fill:#ffffff;fill-opacity:1;fill-rule:nonzero;stroke:none"
             d="m 249.3599,403.3816 0,-0.3786 -3.2006,-2.1728 3.2006,-2.1713 0,-0.3786 -5.4114,0 0,0.4015 4.6998,0 -3.1152,2.1415 0,0.0313 3.1152,2.1407 -4.6998,0 0,0.3863 5.4114,0" /><path
             id="path3445"
             style="fill:#ffffff;fill-opacity:1;fill-rule:nonzero;stroke:none"
             d="m 249.3599,396.6766 0,-3.8496 -0.3711,0 0,3.4474 -2.1263,0 0,-3.1007 -0.3702,0 0,3.1007 -2.1728,0 0,-3.4862 -0.371,0 0,3.8884 5.4114,0" /><path
             id="path3447"
             style="fill:#ffffff;fill-opacity:1;fill-rule:nonzero;stroke:none"
             d="m 246.7079,389.7614 2.652,2.0722 0,-0.4792 -2.3884,-1.8475 2.3884,-1.8399 0,-0.4715 -2.652,2.079 -2.7594,-2.1567 0,0.4792 2.4965,1.9251 -2.4965,1.9176 0,0.4708 2.7594,-2.1491" /><path
             id="path3449"
             style="fill:#ffffff;fill-opacity:1;fill-rule:nonzero;stroke:none"
             d="m 243.9485,385.4668 5.41138,0 0,0.40302 -5.41138,0 0,-0.40302 z" /><path
             id="path3451"
             style="fill:#ffffff;fill-opacity:1;fill-rule:nonzero;stroke:none"
             d="m 246.6385,384.0468 0.016,0 c 1.5306,0 2.7983,-1.1436 2.7983,-2.7046 0,-0.9668 -0.3558,-1.5465 -0.8662,-2.1034 l -0.2933,0.2857 c 0.4563,0.4723 0.7961,1.0125 0.7961,1.8246 0,1.2989 -1.0597,2.2809 -2.4204,2.2809 l -0.0145,0 c -1.3682,0 -2.4356,-0.998 -2.4356,-2.2878 0,-0.7816 0.3017,-1.3149 0.8426,-1.8634 l -0.2628,-0.2705 c -0.5645,0.5721 -0.9432,1.19 -0.9432,2.1492 0,1.5457 1.2289,2.6893 2.783,2.6893" /><path
             id="path3453"
             style="fill:#ffffff;fill-opacity:1;fill-rule:nonzero;stroke:none"
             d="m 245.8272,374.4422 3.1304,1.4224 -3.1304,1.4299 0,-2.8523 z m 3.5707,1.6075 0,-0.3863 -5.4494,-2.5201 0,0.4411 1.5153,0.6879 0,3.1921 -1.5153,0.6887 0,0.4175 5.4494,-2.5209" /><path
             id="path3455"
             style="fill:#ffffff;fill-opacity:1;fill-rule:nonzero;stroke:none"
             d="m 249.3599,372.0035 0,-0.3778 -4.7075,-3.7338 4.7075,0 0,-0.3863 -5.4114,0 0,0.3009 4.8087,3.8115 -4.8087,0 0,0.3855 5.4114,0" /><path
             id="path3457"
             style="fill:#ffffff;fill-opacity:1;fill-rule:nonzero;stroke:none"
             d="m 246.6385,361.116 0.016,0 c 1.3371,0 2.4349,0.9744 2.4349,2.3115 0,1.3378 -1.0826,2.2962 -2.4204,2.2962 l -0.0145,0 c -1.3378,0 -2.4356,-0.9744 -2.4356,-2.3115 0,-1.3378 1.0818,-2.2962 2.4196,-2.2962 z m 0,5.0244 0.016,0 c 1.4757,0 2.7983,-1.0894 2.7983,-2.7282 0,-1.6387 -1.3066,-2.7137 -2.7838,-2.7137 l -0.0145,0 c -1.4772,0 -2.799,1.0902 -2.799,2.729 0,1.6387 1.3066,2.7129 2.783,2.7129" /><path
             id="path3459"
             style="fill:#ffffff;fill-opacity:1;fill-rule:nonzero;stroke:none"
             d="m 328.5131,430.859 c 3.8473,0.2111 7.1987,2.1286 9.3776,4.9711 0.0914,0.1196 0.1813,0.2407 0.2689,0.3626 0.1531,0.2148 0.2994,0.435 0.4388,0.6597 0.0808,0.1296 0.1585,0.2606 0.2339,0.3932 0.1265,0.2209 0.2484,0.4456 0.3611,0.6742 0.0747,0.1516 0.1455,0.3047 0.2141,0.4586 0.008,0.0191 0.0152,0.0389 0.0244,0.0579 -0.1219,0.005 -0.24,0.0229 -0.3642,0.016 l -21.8756,-1.1976 c -0.1234,-0.007 -0.2392,-0.0381 -0.3588,-0.0564 2.3206,-4.0065 6.7477,-6.609 11.6798,-6.3393" /><path
             id="path3461"
             style="fill:#ffffff;fill-opacity:1;fill-rule:nonzero;stroke:none"
             d="m 329.3618,415.3525 c -4.9314,-0.2697 -9.0476,-3.3407 -10.9172,-7.5766 0.1211,-0.005 0.2392,-0.0236 0.3626,-0.0167 l 21.8764,1.1976 c 0.1234,0.007 0.2384,0.0381 0.3588,0.0563 -2.3213,4.0066 -6.7492,6.609 -11.6806,6.3394" /><path
             id="path3463"
             style="fill:#ffffff;fill-opacity:1;fill-rule:nonzero;stroke:none"
             d="m 329.1516,419.1876 c 6.2059,0.3398 11.8093,-2.8059 14.9085,-7.7259 0.1714,0.4708 0.2537,0.982 0.2247,1.5138 l -1.1984,21.8756 c -0.0289,0.5317 -0.1668,1.0308 -0.3885,1.4802 -0.0495,-0.1013 -0.1006,-0.2003 -0.1524,-0.3009 -0.0624,-0.1226 -0.1249,-0.2453 -0.1912,-0.368 -0.192,-0.3534 -0.3992,-0.6993 -0.6163,-1.0368 -0.0968,-0.1509 -0.1958,-0.3002 -0.2987,-0.4487 -0.2224,-0.3238 -0.4555,-0.64 -0.7009,-0.947 -0.051,-0.0633 -0.0929,-0.1318 -0.1455,-0.1958 l -0.008,0.006 c -2.8401,-3.4519 -7.0577,-5.7527 -11.8627,-6.0163 -6.2052,-0.3398 -11.8078,2.8066 -14.9062,7.7259 -0.1722,-0.4709 -0.2544,-0.9821 -0.2255,-1.5138 l 1.1984,-21.8756 c 0.0289,-0.5318 0.1668,-1.0315 0.3885,-1.4803 2.5431,5.2286 7.7685,8.9677 13.9738,9.3075" /><path
             id="path3465"
             style="fill:#ffffff;fill-opacity:1;fill-rule:nonzero;stroke:none"
             d="m 340.3629,380.7388 c 4.4956,2.1469 9.4819,2.0631 13.7261,0.2164 0.7138,3.298 0.3954,6.8459 -1.171,10.1272 -1.5663,3.2805 -4.1246,5.758 -7.1384,7.2764 -1.2327,-4.4614 -4.3029,-8.391 -8.7978,-10.5371 -4.4956,-2.1461 -9.4804,-2.0631 -13.7246,-0.2156 -0.7139,-3.298 -0.3962,-6.8459 1.1702,-10.1264 1.5663,-3.282 4.1254,-5.7596 7.1392,-7.2779 1.2319,4.4621 4.3014,8.3909 8.7963,10.537" /><path
             id="path3467"
             style="fill:#ffffff;fill-opacity:1;fill-rule:nonzero;stroke:none"
             d="m 335.3263,391.2873 c 3.5479,1.6944 5.95,4.8316 6.8406,8.375 -3.3453,0.7618 -6.9594,0.4563 -10.2963,-1.1367 -3.3361,-1.593 -5.8456,-4.2107 -7.3564,-7.2908 3.3156,-1.5359 7.2657,-1.641 10.8121,0.0525" /><path
             id="path3469"
             style="fill:#ffffff;fill-opacity:1;fill-rule:nonzero;stroke:none"
             d="m 342.0183,377.2732 c -3.5479,-1.6943 -5.9492,-4.8308 -6.8398,-8.3749 3.3453,-0.7626 6.9587,-0.4564 10.2956,1.1359 3.3368,1.5938 5.8471,4.2114 7.3571,7.2923 -3.3163,1.5352 -7.2657,1.6403 -10.8129,-0.0533" /><path
             id="path3471"
             style="fill:#ffffff;fill-opacity:1;fill-rule:nonzero;stroke:none"
             d="m 338.3219,456.3122 c 2.2779,-1.8726 3.9151,-4.2351 4.9062,-6.8078 l 5.4122,-0.8982 c 2.9148,-0.4846 5.2605,2.3678 4.2221,5.134 l -1.9274,5.1364 c -2.716,0.4754 -5.3505,1.625 -7.6276,3.4976 -4.9802,4.0949 -6.932,10.5112 -5.611,16.4101 -0.0929,-0.0929 -0.1866,-0.1851 -0.2727,-0.2902 l -16.0544,-19.5238 c -0.0861,-0.1059 -0.1592,-0.2156 -0.2316,-0.3253 5.5325,2.4364 12.2048,1.7614 17.1842,-2.3328" /><path
             id="path3473"
             style="fill:#ffffff;fill-opacity:1;fill-rule:nonzero;stroke:none"
             d="m 345.7468,465.3416 c 1.0864,-0.8936 2.281,-1.5664 3.5281,-2.0425 l -5.294,14.1063 c -0.3924,1.0452 -1.1573,1.7804 -2.057,2.1697 -1.833,-4.936 -0.467,-10.7069 3.8229,-14.2335" /><path
             id="path3475"
             style="fill:#ffffff;fill-opacity:1;fill-rule:nonzero;stroke:none"
             d="m 335.8832,453.3456 c -4.2899,3.5266 -10.2148,3.7521 -14.7036,0.9995 0.5554,-0.8075 1.4247,-1.4162 2.5255,-1.5991 l 14.8636,-2.4683 c -0.7085,1.1321 -1.5983,2.1743 -2.6855,3.0679" /></g></g></g></g></svg>
